Love for All and Sharing is the first step to solving all the problems of humanity.

Website I want to share. 
               
   http://www.scenetime.com
 
 
  Credit to EVERYONE for sharing and seeding back
 especially to SCENETIME.COM where i get all my 
 downloads.


 support www.scenetime.com to grow faster.

 
 The world is ONE big family.	                                
                                                            
                                                   

.                 ..................................NFO:....................................*******************************************************************************
               Love.at.First.Bite.1979.DVDRip.AC3.X264-BARC0DE
*******************************************************************************

-------------------------------------------------------------------------------
                              General Information
-------------------------------------------------------------------------------
Type.................: Movie
Name.................: Love at First Bite 
Movie Information....: http://www.imdb.com/title/tt0079489/
Genre................: Horror | Comedy | Romance

-------------------------------------------------------------------------------
                                    PLOT
-------------------------------------------------------------------------------
This vampire spoof has Count Dracula moving to New York to find his Bride, after 
being forced to move out of his Transylvanian castle. There with the aid of assistant 
Renfield, he stumbles through typical New York city life situations while pursuing 
Cindy Soundheim. But her boyfriend, Doctor Jeff Rosenberg, realizes she is under 
the influence of a vampire, and tries his bumbling best to convince police Lt 
Ferguson of what is going on, and to help him stop Dracula.

-------------------------------------------------------------------------------
                                    CAST
-------------------------------------------------------------------------------
George Hamilton	... 	Count Vladimir Dracula
Susan Saint James	... 	Cindy Sondheim
Richard Benjamin	... 	Dr. Jeffery Rosenberg / Van Helsing
Dick Shawn	... 	Lieutenant Ferguson NYPD
Arte Johnson	... 	Mr. Renfield
Sherman Hemsley	... 	Reverend Mike
Isabel Sanford	... 	Judge R. Thomas
Barry Gordon	... 	Flashlight Vendor
Ronnie Schell	... 	Guy in Elevator
Bob Basso	... 	T.V. Repairman in Elevator
Bryan O'Byrne	... 	Priest in Elevator
Michael Pataki	... 	Mobster in Elevator
Hazel Shermet	... 	Mrs. Knockwurst (Lady in Elevator)
Stanley Brock	... 	Erwin Newman (Cab Driver)
Danny Dayton	... 	Billy, first bellboy

-------------------------------------------------------------------------------
                                    MEDiA iNFO
-------------------------------------------------------------------------------

General
Complete name                    : Love.at.First.Bite.1979.DVDRip.AC3.X264-BARC0DE.mkv
Format                           : Matroska
File size                        : 1.09 GiB
Duration                         : 1h 36mn
Overall bit rate                 : 1 629 Kbps

Video
ID                               : 1
Format                           : AVC
Format/Info                      : Advanced Video Codec
Format profile                   : High@L3.0
Format settings, CABAC           : Yes
Format settings, ReFrames        : 3 frames
Muxing mode                      : Container profile=Unknown@3.0
Codec ID                         : V_MPEG4/ISO/AVC
Duration                         : 1h 36mn
Bit rate                         : 1 405 Kbps
Nominal bit rate                 : 1 437 Kbps
Width                            : 720 pixels
Height                           : 400 pixels
Display aspect ratio             : 16:9
Frame rate                       : 23.976 fps
Resolution                       : 8 bits
Colorimetry                      : 4:2:0
Scan type                        : Progressive
Bits/(Pixel*Frame)               : 0.203
Stream size                      : 965 MiB (86%)
Writing library                  : x264 core 79

Audio
ID                               : 2
Format                           : AC-3
Format/Info                      : Audio Coding 3
Codec ID                         : A_AC3
Duration                         : 1h 36mn
Bit rate mode                    : Constant
Bit rate                         : 192 Kbps
Channel(s)                       : 2 channels
Channel positions                : Front: L R
Sampling rate                    : 48.0 KHz
Stream size                      : 132 MiB (12%)
Language                         : English

Menu
00:00:00.000                     : Chapter 1
00:06:11.487                     : Chapter 2
00:11:21.797                     : Chapter 3
00:15:36.385                     : Chapter 4
00:20:08.657                     : Chapter 5
00:25:08.957                     : Chapter 6
00:31:34.842                     : Chapter 7
00:37:11.012                     : Chapter 8
00:41:50.791                     : Chapter 9
00:47:21.955                     : Chapter 10
00:55:10.423                     : Chapter 11
01:04:46.635                     : Chapter 12
01:12:11.329                     : Chapter 13
01:15:58.723                     : Chapter 14
01:24:41.746                     : Chapter 15
01:28:56.167                     : Chapter 16